<?xml version="1.0" encoding="UTF-8" standalone="no"?>
<!-- Created with Inkscape (http://www.inkscape.org/) -->

<svg
   width="210mm"
   height="297mm"
   viewBox="0 0 210 297"
   version="1.1"
   id="svg5"
   inkscape:version="1.2.2 (732a01da63, 2022-12-09)"
   sodipodi:docname="placeholder_cricri.svg"
   xmlns:inkscape="http://www.inkscape.org/namespaces/inkscape"
   xmlns:sodipodi="http://sodipodi.sourceforge.net/DTD/sodipodi-0.dtd"
   xmlns="http://www.w3.org/2000/svg"
   xmlns:svg="http://www.w3.org/2000/svg">
  <sodipodi:namedview
     id="namedview7"
     pagecolor="#ffffff"
     bordercolor="#000000"
     borderopacity="0.25"
     inkscape:showpageshadow="2"
     inkscape:pageopacity="0.0"
     inkscape:pagecheckerboard="0"
     inkscape:deskcolor="#d1d1d1"
     inkscape:document-units="mm"
     showgrid="false"
     inkscape:zoom="1.0544998"
     inkscape:cx="225.69943"
     inkscape:cy="621.14758"
     inkscape:window-width="1920"
     inkscape:window-height="1017"
     inkscape:window-x="1912"
     inkscape:window-y="-8"
     inkscape:window-maximized="1"
     inkscape:current-layer="layer1" />
  <defs
     id="defs2">
    <inkscape:path-effect
       effect="powerstroke"
       id="path-effect1184"
       is_visible="true"
       lpeversion="1"
       offset_points="1.1092028,1.4193548"
       not_jump="true"
       sort_points="true"
       interpolator_type="CentripetalCatmullRom"
       interpolator_beta="0.75"
       start_linecap_type="round"
       linejoin_type="spiro"
       miter_limit="4"
       scale_width="1"
       end_linecap_type="round" />
    <inkscape:path-effect
       effect="simplify"
       id="path-effect1182"
       is_visible="true"
       lpeversion="1"
       steps="1"
       threshold="0.014201184"
       smooth_angles="0"
       helper_size="0"
       simplify_individual_paths="false"
       simplify_just_coalesce="false"
       step="1" />
  </defs>
  <g
     inkscape:label="Calque 1"
     inkscape:groupmode="layer"
     id="layer1">
    <path
       style="fill:#4d4d4d;stroke:none;stroke-width:0.163617;stroke-opacity:1;stop-color:#000000"
       d="M 7.1806865e-5,296.84319 H 132.29167 v -25.70328 l -3.72044,0.623 -3.12735,-0.40119 -0.2449,-0.57902 -2.94543,0.83847 -2.57856,-0.72701 -2.85307,0.72611 -3.11252,-1.00653 -4.34503,0.10109 -5.56778,0.67081 -0.5369,-0.618 -1.11499,0.64217 -3.180183,-0.76164 -4.086877,0.42016 -3.295987,-0.50446 -3.156955,0.60594 -0.674903,-0.50408 -7.196128,0.64907 -1.951527,-0.73031 -5.45352,-0.15818 -0.814823,0.8606 -5.82723,-0.0442 -0.442145,-0.75414 -3.806912,0.95955 -4.945885,-0.83574 -3.249802,0.70467 -4.434178,-0.70805 -0.465013,0.44162 -0.534855,-0.32173 -2.342887,0.77661 -4.946332,-0.88936 -4.457596,0.5591 -0.256415,-0.66445 -1.25425,0.75188 -4.387009,-0.54568 -1.299335,0.46972 -2.091281,-0.80184 -1.020825,0.52686 -0.929242,-0.0109 -1.04473,0.90277 -0.998925,-0.003 -1.298382,-0.66813 -0.604091,-0.69195 -0.302777,0.41263 -2.948573,0.34316 -2.298299,0.53112 -1.950472,-0.55281 -1.346535,0.90668 -2.902519,-0.32095 -0.6727807,-0.94901 -3.0409666,0.94401 -3.2417639,0.42267 L 0,271.13964 Z"
       id="path1055"
       sodipodi:nodetypes="cccccccccccccccccccccccccccccccccccccccccccccccccccccccc"
       inkscape:label="ground" />
    <path
       style="fill:#4d4d4d;stroke:none;stroke-width:0.1988;stroke-opacity:1;stop-color:#000000"
       d="m 55.684935,93.938878 -6.988993,-26.664462 21.466196,-14.702833 12.230739,5.482412 -0.998428,9.718821 6.988993,8.223619 -0.998428,14.204443 -18.221304,5.2332 z"
       id="path1108"
       inkscape:label="stone4" />
    <path
       style="fill:#4d4d4d;stroke:none;stroke-width:0.191898;stroke-opacity:1;stop-color:#000000"
       d="m 19.242609,92.434659 -4.715815,-18.475192 3.991075,-17.031077 4.83167,-5.517866 4.59008,1.199535 5.07326,0.719721 1.69108,3.59861 0.72475,8.39675 4.10692,6.237587 -1.4495,10.076102 2.899,8.87657 -4.83166,7.19721 -8.45543,-1.43944 z"
       id="path1112"
       sodipodi:nodetypes="cccccccccccccc"
       inkscape:label="stone3" />
    <path
       style="fill:#4d4d4d;stroke:none;stroke-width:0.144556;stroke-opacity:1;stop-color:#000000"
       d="m 98.340976,84.238983 5.499044,-15.321676 11.78724,-3.638275 5.54762,-6.084741 7.55129,3.502395 8.57094,14.395023 0.73137,10.413974 -16.00171,0.176724 -18.63692,1.938967 z"
       id="path1114"
       sodipodi:nodetypes="cccccccccc"
       inkscape:label="stone2" />
    <path
       style="fill:#4d4d4d;stroke:none;stroke-width:0.194416;stroke-opacity:1;stop-color:#000000"
       d="m 150.28597,89.8373 -0.92917,-8.93859 3.25334,-9.02852 6.37269,-8.49391 4.81328,-3.93287 10.39649,4.60876 10.36,3.01999 0.54278,12.9579 3.94892,9.95373 -2.15813,5.30261 -7.73806,-2.77472 -13.87262,2.22432 -4.68324,1.74908 -2.20265,-2.15045 z"
       id="path1188"
       sodipodi:nodetypes="ccccccccccccccc"
       inkscape:label="stone1" />
    <circle
       style="fill:#ffffff;fill-opacity:1;stroke:none;stroke-width:0.186434;stroke-opacity:1;stop-color:#000000"
       id="path1242"
       cx="112.24447"
       cy="129.51413"
       r="10.583333"
       inkscape:label="food" />
    <g
       id="g1714"
       inkscape:label="fence"
       transform="translate(-22.779951,-162.45993)">
      <rect
         style="fill:#6c452e;fill-opacity:1;stroke:none;stroke-width:0.178128;stroke-opacity:1;stop-color:#000000"
         id="rect1820"
         width="39.6875"
         height="6.3870964"
         x="22.779951"
         y="175.25739"
         ry="0.19116396"
         inkscape:export-filename="..\Sprites\Placeholder\sprite_exterieur.png"
         inkscape:export-xdpi="96"
         inkscape:export-ydpi="96" />
      <rect
         style="fill:#6c452e;fill-opacity:1;stroke:none;stroke-width:0.178128;stroke-opacity:1;stop-color:#000000"
         id="rect1884"
         width="39.6875"
         height="6.3870964"
         x="22.779951"
         y="191.66133"
         ry="0.19116396" />
      <path
         style="fill:#594b41;fill-opacity:1;stroke:none;stroke-width:0.151247;stroke-opacity:1;stop-color:#000000"
         d="m 24.905434,202.14743 -1.116917,-31.87984 4.724173,-7.80766 4.489272,7.41944 -1.57825,32.26806 z"
         id="path1034"
         sodipodi:nodetypes="cccccc" />
      <path
         style="fill:#594b41;fill-opacity:1;stroke:none;stroke-width:0.151247;stroke-opacity:1;stop-color:#000000"
         d="m 33.745012,202.14743 0.04856,-31.87984 4.141433,-7.80766 4.197902,7.41944 -2.986536,32.26806 z"
         id="path1036"
         sodipodi:nodetypes="cccccc" />
      <path
         style="fill:#594b41;fill-opacity:1;stroke:none;stroke-width:0.151247;stroke-opacity:1;stop-color:#000000"
         d="m 44.429931,202.14743 -1.796779,-31.87984 4.724172,-7.80766 4.489272,7.41944 -1.092633,32.26806 z"
         id="path1038"
         sodipodi:nodetypes="cccccc" />
      <path
         style="fill:#594b41;fill-opacity:1;stroke:none;stroke-width:0.151247;stroke-opacity:1;stop-color:#000000"
         d="m 53.083223,202.14743 v -31.87984 l 4.106084,-7.80766 3.596478,7.41944 0.0444,32.26806 z"
         id="path1040"
         sodipodi:nodetypes="cccccc" />
    </g>
    <g
       id="g1706"
       inkscape:label="worm_head"
       inkscape:export-filename="..\Sprites\Placeholder\sprite_worm_head.png"
       inkscape:export-xdpi="96"
       inkscape:export-ydpi="96"
       transform="translate(-32.31016,22.581797)">
      <rect
         style="fill:#594b41;stroke-width:0.122678;stop-color:#000000"
         id="rect411"
         width="5.2916665"
         height="15.875"
         x="54.196312"
         y="97.979904"
         ry="2.6458333" />
      <circle
         style="fill:#ffffff;fill-opacity:1;stroke:#000000;stroke-width:0.173359;stroke-opacity:1;stop-color:#000000"
         id="path413"
         cx="55.506218"
         cy="100.0163"
         r="0.66145831" />
      <circle
         style="fill:#ffffff;fill-opacity:1;stroke:#000000;stroke-width:0.173359;stroke-opacity:1;stop-color:#000000"
         id="circle969"
         cx="58.152054"
         cy="100.0163"
         r="0.66145831" />
      <ellipse
         style="fill:#000000;fill-opacity:1;stroke:none;stroke-width:0.0613095;stroke-opacity:1;stop-color:#000000"
         id="circle971"
         cx="55.506218"
         cy="99.794525"
         rx="0.23392864"
         ry="0.23392859" />
      <ellipse
         style="fill:#000000;fill-opacity:1;stroke:none;stroke-width:0.0613095;stroke-opacity:1;stop-color:#000000"
         id="ellipse973"
         cx="58.152054"
         cy="99.794525"
         rx="0.23392864"
         ry="0.23392859" />
    </g>
    <g
       id="g971"
       inkscape:label="Mole"
       transform="matrix(1.1324832,0,0,1.3193225,-138.7059,-33.057223)"
       inkscape:export-filename="..\Sprites\Placeholder\sprite_mole.png"
       inkscape:export-xdpi="96"
       inkscape:export-ydpi="96">
      <g
         id="g2194"
         transform="translate(0,5.536167)">
        <path
           style="fill:#000000;fill-opacity:1;stroke-width:0.160686;stop-color:#000000"
           d="m 161.28686,130.27509 -2.75634,-2.42172 v 3.65763 l -3.97185,-2.01477 1.23263,4.04177 h -4.16112 l 2.76236,2.42701 -3.95815,0.93183 3.10258,2.72593 z"
           id="path1302" />
        <path
           style="fill:#000000;fill-opacity:1;stroke-width:0.160686;stop-color:#000000"
           d="m 190.98077,130.27509 2.75634,-2.42172 v 3.65763 l 3.97185,-2.01477 -1.23263,4.04177 h 4.16112 l -2.76236,2.42701 3.95815,0.93183 -3.10258,2.72593 z"
           id="path2190" />
      </g>
      <g
         id="g1138"
         transform="translate(-0.03189622,5.536167)">
        <ellipse
           style="fill:#464646;fill-opacity:1;stroke-width:0.210922;stop-color:#000000"
           id="path1124"
           cx="163.14975"
           cy="139.2271"
           rx="9.656682"
           ry="9.1524286" />
        <ellipse
           style="fill:#464646;fill-opacity:1;stroke-width:0.210922;stop-color:#000000"
           id="ellipse1126"
           cx="189.18143"
           cy="139.2271"
           rx="9.656682"
           ry="9.1524286" />
      </g>
      <g
         id="g2200"
         transform="matrix(1,0,0,-1,0,328.88352)">
        <path
           style="fill:#000000;fill-opacity:1;stroke-width:0.160686;stop-color:#000000"
           d="m 161.28686,130.27509 -2.75634,-2.42172 v 3.65763 l -3.97185,-2.01477 1.23263,4.04177 h -4.16112 l 2.76236,2.42701 -3.95815,0.93183 3.10258,2.72593 z"
           id="path2196" />
        <path
           style="fill:#000000;fill-opacity:1;stroke-width:0.160686;stop-color:#000000"
           d="m 190.98077,130.27509 2.75634,-2.42172 v 3.65763 l 3.97185,-2.01477 -1.23263,4.04177 h 4.16112 l -2.76236,2.42701 3.95815,0.93183 -3.10258,2.72593 z"
           id="path2198" />
      </g>
      <g
         id="g1134"
         transform="translate(-0.03189622,-4.745286)">
        <ellipse
           style="fill:#464646;fill-opacity:1;stroke-width:0.210922;stop-color:#000000"
           id="ellipse1128"
           cx="163.14975"
           cy="194.222"
           rx="9.656682"
           ry="9.1524286" />
        <ellipse
           style="fill:#464646;fill-opacity:1;stroke-width:0.210922;stop-color:#000000"
           id="ellipse1130"
           cx="189.18143"
           cy="194.222"
           rx="9.656682"
           ry="9.1524286" />
      </g>
      <ellipse
         style="fill:#464646;fill-opacity:1;stroke-width:0.180706;stop-color:#000000"
         id="path1192"
         cx="175.39642"
         cy="130.34189"
         rx="10.112903"
         ry="11.490641" />
      <rect
         style="fill:#040029;fill-opacity:1;stroke-width:0.167584;stop-color:#000000"
         id="rect360"
         width="35.128025"
         height="64.935478"
         x="157.83241"
         y="134.25681"
         ry="14.8593" />
      <g
         id="g2210"
         transform="translate(-7.2325578)">
        <ellipse
           style="fill:#000000;fill-opacity:1;stroke-width:0.160686;stop-color:#000000"
           id="path2202"
           cx="178.22015"
           cy="124.97365"
           rx="1.9355825"
           ry="0.14171703" />
        <ellipse
           style="fill:#000000;fill-opacity:1;stroke-width:0.160686;stop-color:#000000"
           id="ellipse2204"
           cx="187.03781"
           cy="124.97365"
           rx="1.9355825"
           ry="0.14171703" />
      </g>
      <ellipse
         style="fill:#000000;fill-opacity:1;stroke-width:0.160686;stop-color:#000000"
         id="path2206"
         cx="175.39642"
         cy="118.2421"
         rx="1.6936347"
         ry="1.4407898" />
    </g>
  </g>
</svg>
